<svg id="svg" version="1.1" xmlns="http://www.w3.org/2000/svg" xmlns:xlink="http://www.w3.org/1999/xlink" width="400" height="375.1937984496124" viewBox="0, 0, 400,375.1937984496124"><g id="svgg"><path id="path0" d="M115.572 79.550 C 115.263 79.750,114.217 79.916,113.249 79.919 C 112.281 79.922,111.385 80.094,111.257 80.300 C 111.129 80.507,110.621 80.675,110.127 80.675 C 109.633 80.675,108.841 80.827,108.367 81.012 C 107.893 81.196,106.745 81.572,105.816 81.845 C 104.041 82.368,98.918 84.927,97.907 85.795 C 97.581 86.075,97.189 86.304,97.036 86.304 C 96.763 86.304,93.425 88.489,93.058 88.908 C 92.955 89.026,92.280 89.570,91.557 90.117 C 89.011 92.045,85.135 96.234,83.499 98.826 C 83.092 99.472,82.543 100.223,82.280 100.496 C 82.017 100.769,81.801 101.136,81.801 101.313 C 81.801 101.490,81.587 101.858,81.326 102.131 C 80.559 102.932,77.674 108.813,77.674 109.576 C 77.674 109.960,77.505 110.379,77.298 110.507 C 77.092 110.634,76.923 111.141,76.923 111.632 C 76.923 112.124,76.773 112.619,76.589 112.732 C 76.246 112.944,76.076 113.705,75.482 117.692 C 75.292 118.962,75.029 120.176,74.896 120.392 C 74.476 121.071,74.624 298.413,75.044 298.834 C 75.252 299.042,75.422 300.013,75.422 300.991 C 75.422 301.969,75.591 302.874,75.797 303.002 C 76.004 303.129,76.173 303.805,76.173 304.503 C 76.173 305.201,76.341 305.876,76.548 306.004 C 76.754 306.131,76.923 306.698,76.923 307.264 C 76.923 307.830,77.057 308.453,77.222 308.649 C 77.386 308.845,77.747 309.681,78.025 310.507 C 78.303 311.332,78.635 312.092,78.763 312.195 C 78.892 312.298,79.417 313.227,79.930 314.259 C 80.443 315.291,80.993 316.304,81.154 316.510 C 81.314 316.717,81.984 317.730,82.641 318.762 C 83.299 319.794,83.937 320.722,84.059 320.826 C 84.180 320.929,84.777 321.685,85.386 322.506 C 91.155 330.297,102.535 336.954,113.508 338.959 C 116.185 339.447,292.850 339.583,295.872 339.099 C 301.446 338.205,310.778 334.729,312.199 333.016 C 312.454 332.709,312.822 332.458,313.018 332.458 C 313.347 332.458,316.651 330.336,317.073 329.854 C 317.176 329.736,317.883 329.176,318.643 328.609 C 321.448 326.519,325.373 322.040,327.766 318.199 C 328.344 317.270,328.920 316.426,329.045 316.323 C 329.463 315.978,331.707 311.347,331.707 310.829 C 331.707 310.549,331.876 310.319,332.083 310.319 C 332.289 310.319,332.458 309.907,332.458 309.403 C 332.458 308.899,332.627 308.383,332.833 308.255 C 333.039 308.128,333.208 307.527,333.208 306.920 C 333.208 306.313,333.377 305.816,333.583 305.816 C 333.790 305.816,333.959 305.246,333.959 304.549 C 333.959 303.852,334.207 303.076,334.509 302.824 C 334.913 302.490,335.000 301.926,334.834 300.720 C 334.694 299.698,334.774 298.873,335.044 298.548 C 335.741 297.708,335.832 121.095,335.136 120.444 C 334.791 120.122,334.679 119.396,334.792 118.222 C 334.903 117.063,334.791 116.320,334.459 116.010 C 334.184 115.753,333.959 115.053,333.959 114.454 C 333.959 113.855,333.790 113.261,333.583 113.133 C 333.377 113.006,333.208 112.415,333.208 111.820 C 333.208 111.225,333.039 110.634,332.833 110.507 C 332.627 110.379,332.458 109.971,332.458 109.599 C 332.458 108.863,330.194 104.205,329.737 104.003 C 329.583 103.934,329.456 103.709,329.456 103.503 C 329.456 102.030,321.273 92.124,318.175 89.847 C 313.072 86.097,307.087 82.728,303.940 81.833 C 303.011 81.569,301.958 81.200,301.600 81.014 C 301.241 80.828,300.449 80.675,299.840 80.675 C 299.230 80.675,298.627 80.507,298.499 80.300 C 298.372 80.094,297.443 79.925,296.435 79.925 C 295.428 79.925,294.499 79.756,294.371 79.550 C 294.057 79.041,116.360 79.041,115.572 79.550 M282.617 132.125 C 286.031 132.838,290.807 135.835,290.807 137.265 C 290.807 137.510,290.933 137.712,291.088 137.714 C 291.542 137.719,292.308 139.648,292.308 140.788 C 292.308 141.366,292.477 141.839,292.683 141.839 C 292.897 141.839,293.058 142.957,293.058 144.443 C 293.058 145.876,292.889 147.152,292.683 147.280 C 292.477 147.407,292.308 148.008,292.308 148.615 C 292.308 149.222,292.139 149.719,291.932 149.719 C 291.726 149.719,291.557 149.970,291.557 150.277 C 291.557 150.885,290.926 151.724,288.986 153.695 C 287.740 154.961,286.613 155.579,284.026 156.415 C 282.258 156.986,126.619 157.043,126.266 156.473 C 126.139 156.266,125.611 156.098,125.092 156.098 C 120.426 156.098,114.365 144.397,117.438 141.323 C 117.650 141.111,117.824 140.538,117.824 140.049 C 117.824 137.544,123.408 132.471,126.186 132.452 C 126.643 132.449,127.270 132.283,127.580 132.083 C 128.422 131.538,280.005 131.579,282.617 132.125 M283.651 197.426 C 288.354 198.928,292.308 202.576,292.308 205.414 C 292.308 205.920,292.477 206.439,292.683 206.567 C 292.889 206.694,293.058 207.961,293.058 209.381 C 293.058 210.801,292.889 212.068,292.683 212.195 C 292.477 212.323,292.308 212.841,292.308 213.348 C 292.308 214.644,291.463 216.025,289.209 218.415 C 288.639 219.018,288.006 219.512,287.802 219.512 C 287.597 219.512,287.430 219.681,287.430 219.887 C 287.430 220.094,287.092 220.263,286.679 220.263 C 286.266 220.263,285.929 220.432,285.929 220.638 C 285.929 220.844,285.432 221.013,284.825 221.013 C 284.218 221.013,283.617 221.182,283.490 221.388 C 283.336 221.637,256.719 221.764,204.856 221.764 C 152.838 221.764,126.454 221.637,126.454 221.388 C 126.454 221.182,126.037 221.013,125.527 221.013 C 123.785 221.013,118.574 217.011,118.574 215.673 C 118.574 215.485,118.311 215.068,117.990 214.747 C 117.668 214.425,117.505 213.902,117.627 213.584 C 117.749 213.266,117.667 212.893,117.444 212.755 C 116.811 212.364,116.782 206.996,117.408 206.241 C 117.695 205.894,117.829 205.508,117.704 205.384 C 116.750 204.430,121.796 198.888,124.290 198.150 C 125.171 197.889,126.144 197.533,126.454 197.359 C 127.365 196.846,282.040 196.912,283.651 197.426 M72.543 202.814 C 72.545 204.259,72.613 204.804,72.694 204.025 C 72.775 203.247,72.774 202.065,72.691 201.399 C 72.608 200.733,72.542 201.370,72.543 202.814 M283.490 262.289 C 283.617 262.495,284.108 262.664,284.580 262.664 C 286.455 262.664,291.557 266.894,291.557 268.449 C 291.557 268.776,291.726 269.043,291.932 269.043 C 292.139 269.043,292.308 269.540,292.308 270.147 C 292.308 270.754,292.477 271.355,292.683 271.482 C 292.889 271.610,293.058 272.876,293.058 274.296 C 293.058 275.717,292.889 276.983,292.683 277.111 C 292.477 277.238,292.308 277.750,292.308 278.247 C 292.308 281.232,288.182 285.060,283.275 286.627 C 281.372 287.234,128.784 287.240,126.856 286.632 C 123.780 285.663,121.865 284.579,120.359 282.953 C 118.604 281.059,117.341 279.032,117.695 278.678 C 117.820 278.553,117.648 277.874,117.313 277.168 C 116.659 275.790,116.691 272.037,117.363 271.190 C 117.563 270.938,117.681 270.444,117.623 270.091 C 117.566 269.739,117.757 269.254,118.047 269.014 C 118.337 268.773,118.574 268.353,118.574 268.080 C 118.574 266.695,123.768 262.664,125.551 262.664 C 126.024 262.664,126.514 262.495,126.642 262.289 C 126.963 261.769,283.168 261.769,283.490 262.289 M72.533 283.677 C 72.533 284.812,72.603 285.277,72.689 284.709 C 72.775 284.142,72.775 283.213,72.689 282.645 C 72.603 282.078,72.533 282.542,72.533 283.677 M72.522 290.432 C 72.522 291.360,72.596 291.740,72.685 291.276 C 72.775 290.811,72.775 290.052,72.685 289.587 C 72.596 289.123,72.522 289.503,72.522 290.432 " stroke="none" fill="#f49cac" fill-rule="evenodd"></path><path id="path1" d="M120.263 77.674 C 120.133 77.883,118.390 78.049,116.323 78.049 C 114.255 78.049,112.512 78.215,112.383 78.424 C 112.255 78.630,111.495 78.799,110.694 78.799 C 109.893 78.799,109.133 78.968,109.006 79.174 C 108.878 79.381,108.443 79.550,108.039 79.550 C 107.000 79.550,104.315 80.427,104.315 80.767 C 104.315 80.923,103.823 81.051,103.221 81.051 C 102.619 81.051,102.070 81.187,102.001 81.354 C 101.932 81.522,100.997 82.092,99.923 82.623 C 98.849 83.153,98.075 83.692,98.204 83.820 C 98.332 83.948,97.986 84.053,97.436 84.053 C 96.886 84.053,96.435 84.221,96.435 84.428 C 96.435 84.634,96.190 84.803,95.891 84.803 C 95.592 84.803,95.175 85.098,94.964 85.460 C 94.754 85.821,94.577 85.983,94.571 85.820 C 94.557 85.473,93.833 86.024,92.084 87.711 C 91.389 88.382,90.735 88.931,90.630 88.931 C 90.151 88.931,84.803 93.929,84.803 94.376 C 84.803 94.535,84.318 95.129,83.725 95.695 C 83.132 96.262,82.257 97.420,81.780 98.269 C 81.303 99.118,80.775 99.812,80.606 99.812 C 80.438 99.812,80.300 100.150,80.300 100.563 C 80.300 100.976,80.163 101.313,79.995 101.313 C 79.827 101.313,79.461 101.897,79.181 102.610 C 78.901 103.323,78.532 103.819,78.361 103.713 C 78.189 103.607,78.049 103.858,78.049 104.271 C 78.049 104.684,77.880 105.126,77.674 105.253 C 77.467 105.381,77.298 105.813,77.298 106.214 C 77.298 106.614,77.129 106.942,76.923 106.942 C 76.717 106.942,76.548 107.292,76.548 107.719 C 76.548 108.147,76.282 108.762,75.958 109.086 C 75.600 109.444,75.451 110.009,75.580 110.521 C 75.713 111.050,75.600 111.440,75.280 111.563 C 74.986 111.676,74.814 112.173,74.875 112.733 C 74.934 113.269,74.760 113.929,74.489 114.200 C 74.218 114.471,73.996 115.318,73.996 116.081 C 73.996 116.844,73.833 117.675,73.634 117.928 C 72.779 119.010,72.083 212.790,72.795 230.828 C 72.899 233.440,72.852 235.495,72.691 235.396 C 72.312 235.160,72.458 292.990,72.840 294.061 C 72.999 294.510,73.163 296.241,73.203 297.907 C 73.244 299.574,73.421 300.938,73.599 300.938 C 73.776 300.938,73.921 301.762,73.921 302.768 C 73.921 303.904,74.126 304.769,74.462 305.047 C 74.759 305.294,74.909 305.739,74.795 306.036 C 74.681 306.333,74.767 306.792,74.986 307.056 C 75.205 307.320,75.486 308.119,75.610 308.833 C 75.735 309.547,75.997 310.188,76.192 310.256 C 76.388 310.325,76.548 310.695,76.548 311.079 C 76.548 311.462,76.717 311.880,76.923 312.008 C 77.129 312.135,77.298 312.567,77.298 312.968 C 77.298 313.368,77.467 313.696,77.674 313.696 C 77.880 313.696,78.049 314.034,78.049 314.447 C 78.049 314.859,78.218 315.197,78.424 315.197 C 78.630 315.197,78.799 315.418,78.799 315.689 C 78.799 315.960,79.137 316.544,79.550 316.987 C 79.962 317.430,80.300 318.015,80.300 318.288 C 80.300 318.561,80.638 319.027,81.051 319.325 C 81.463 319.622,81.801 320.087,81.801 320.358 C 81.801 320.629,82.396 321.446,83.123 322.173 C 83.851 322.900,84.380 323.612,84.301 323.755 C 84.120 324.079,90.529 330.351,91.205 330.511 C 91.476 330.576,91.981 330.956,92.328 331.355 C 92.675 331.755,93.150 332.083,93.384 332.083 C 93.617 332.083,93.809 332.251,93.809 332.458 C 93.809 332.664,94.062 332.833,94.371 332.833 C 94.681 332.833,94.934 333.002,94.934 333.208 C 94.934 333.415,95.231 333.583,95.595 333.583 C 95.958 333.583,96.466 333.921,96.723 334.334 C 96.988 334.758,97.598 335.084,98.127 335.084 C 98.708 335.084,99.062 335.298,99.062 335.647 C 99.062 335.957,99.189 336.172,99.343 336.126 C 99.765 336.001,102.064 337.100,102.064 337.427 C 102.064 337.583,102.319 337.711,102.632 337.711 C 102.944 337.711,103.493 337.859,103.851 338.040 C 104.961 338.601,107.141 339.212,108.032 339.212 C 109.272 339.212,108.794 338.299,107.476 338.151 C 106.873 338.084,106.219 337.873,106.023 337.682 C 105.826 337.492,105.278 337.336,104.803 337.336 C 104.328 337.336,103.940 337.167,103.940 336.961 C 103.940 336.754,103.692 336.585,103.389 336.585 C 103.085 336.585,102.236 336.248,101.501 335.835 C 100.766 335.422,99.917 335.084,99.613 335.084 C 99.310 335.084,99.062 334.916,99.062 334.709 C 99.062 334.503,98.809 334.334,98.499 334.334 C 98.189 334.334,97.936 334.165,97.936 333.959 C 97.936 333.752,97.683 333.583,97.373 333.583 C 97.064 333.583,96.811 333.415,96.811 333.208 C 96.811 333.002,96.589 332.833,96.318 332.833 C 96.048 332.833,95.464 332.495,95.021 332.083 C 94.578 331.670,94.082 331.329,93.918 331.325 C 93.207 331.309,86.825 325.404,85.022 323.093 C 81.848 319.027,77.298 311.274,77.298 309.934 C 77.298 309.551,77.129 309.133,76.923 309.006 C 76.717 308.878,76.548 308.362,76.548 307.858 C 76.548 307.354,76.379 306.942,76.173 306.942 C 75.966 306.942,75.797 306.276,75.797 305.463 C 75.797 304.650,75.629 303.880,75.422 303.752 C 75.216 303.625,75.047 302.781,75.047 301.876 C 75.047 300.972,74.878 300.128,74.672 300.000 C 74.152 299.679,74.152 119.083,74.672 118.762 C 74.878 118.634,75.047 117.696,75.047 116.676 C 75.047 115.656,75.216 114.822,75.422 114.822 C 75.629 114.822,75.797 114.146,75.797 113.321 C 75.797 112.495,75.966 111.820,76.173 111.820 C 76.379 111.820,76.548 111.408,76.548 110.904 C 76.548 110.400,76.717 109.884,76.923 109.756 C 77.129 109.629,77.298 109.220,77.298 108.849 C 77.298 108.112,79.562 103.455,80.019 103.252 C 80.174 103.183,80.300 102.985,80.300 102.812 C 80.300 101.235,88.069 91.905,91.547 89.306 C 92.237 88.790,93.016 88.157,93.278 87.899 C 93.541 87.641,93.936 87.430,94.157 87.430 C 94.378 87.430,94.559 87.261,94.559 87.054 C 94.559 86.848,94.798 86.679,95.091 86.679 C 95.383 86.679,95.679 86.553,95.747 86.398 C 96.090 85.627,103.053 82.144,106.379 81.079 C 110.750 79.680,111.267 79.550,112.428 79.550 C 113.043 79.550,113.716 79.380,113.923 79.173 C 114.709 78.387,295.403 78.887,298.687 79.684 C 304.354 81.060,310.436 83.546,312.356 85.272 C 312.758 85.633,313.309 85.929,313.579 85.929 C 313.850 85.929,314.071 86.098,314.071 86.304 C 314.071 86.510,314.293 86.679,314.563 86.679 C 314.834 86.679,315.418 87.017,315.861 87.430 C 316.304 87.842,316.756 88.180,316.866 88.180 C 317.554 88.180,324.317 94.783,325.706 96.811 C 326.201 97.533,326.705 98.208,326.826 98.311 C 327.293 98.708,330.479 103.812,330.984 104.972 C 331.276 105.643,331.643 106.191,331.799 106.191 C 331.955 106.191,332.083 106.529,332.083 106.942 C 332.083 107.355,332.251 107.692,332.458 107.692 C 332.664 107.692,332.833 108.199,332.833 108.818 C 332.833 109.437,333.002 109.944,333.208 109.944 C 333.415 109.944,333.583 110.450,333.583 111.069 C 333.583 111.689,333.752 112.195,333.959 112.195 C 334.165 112.195,334.334 112.871,334.334 113.696 C 334.334 114.522,334.503 115.197,334.709 115.197 C 334.916 115.197,335.084 116.126,335.084 117.261 C 335.084 118.396,335.253 119.325,335.460 119.325 C 335.709 119.325,335.835 149.524,335.835 209.171 C 335.835 291.275,335.937 301.538,336.724 298.589 C 337.218 296.739,336.972 120.140,336.474 119.627 C 336.214 119.357,335.974 118.128,335.943 116.894 C 335.911 115.660,335.705 114.591,335.485 114.517 C 335.265 114.444,335.084 113.891,335.084 113.290 C 335.084 112.688,334.916 112.195,334.709 112.195 C 334.503 112.195,334.334 111.520,334.334 110.694 C 334.334 109.869,334.165 109.193,333.959 109.193 C 333.752 109.193,333.583 108.938,333.583 108.625 C 333.583 108.313,333.426 107.764,333.233 107.406 C 333.040 107.047,332.661 106.205,332.391 105.535 C 332.120 104.864,331.772 104.315,331.616 104.315 C 331.460 104.315,331.332 103.977,331.332 103.565 C 331.332 103.152,331.163 102.814,330.957 102.814 C 330.750 102.814,330.582 102.514,330.582 102.147 C 330.582 101.779,330.244 101.236,329.831 100.938 C 329.418 100.641,329.081 100.111,329.081 99.761 C 329.081 99.411,328.954 99.068,328.799 98.999 C 328.644 98.931,327.766 97.865,326.847 96.632 C 324.117 92.968,321.134 89.681,320.539 89.681 C 320.350 89.681,319.426 88.963,318.486 88.086 C 316.977 86.678,313.149 84.099,313.124 84.474 C 313.115 84.606,312.505 84.127,311.271 83.021 C 310.983 82.763,310.482 82.552,310.158 82.552 C 309.834 82.552,309.568 82.383,309.568 82.176 C 309.568 81.970,309.313 81.801,309.001 81.801 C 308.688 81.801,308.097 81.632,307.687 81.426 C 307.277 81.220,306.606 80.882,306.196 80.675 C 305.787 80.469,305.121 80.300,304.718 80.300 C 304.314 80.300,303.880 80.131,303.752 79.925 C 303.625 79.719,302.939 79.550,302.229 79.550 C 301.519 79.550,300.938 79.381,300.938 79.174 C 300.938 78.968,300.263 78.799,299.437 78.799 C 298.612 78.799,297.936 78.630,297.936 78.424 C 297.936 78.200,296.498 78.049,294.371 78.049 C 292.252 78.049,290.807 77.897,290.807 77.675 C 290.807 77.223,138.176 77.155,137.553 77.606 C 137.331 77.767,135.038 77.780,132.458 77.634 C 125.392 77.235,120.524 77.251,120.263 77.674 M125.328 133.187 C 125.019 133.357,124.259 133.727,123.640 134.009 C 123.021 134.291,122.187 134.817,121.787 135.178 C 121.387 135.539,120.922 135.835,120.755 135.835 C 120.587 135.835,120.450 136.088,120.450 136.398 C 120.450 136.707,120.281 136.961,120.075 136.961 C 119.869 136.961,119.700 137.214,119.700 137.523 C 119.700 137.833,119.573 138.088,119.418 138.089 C 118.964 138.094,118.199 140.023,118.199 141.163 C 118.199 141.741,118.368 142.214,118.574 142.214 C 118.780 142.214,118.949 141.707,118.949 141.088 C 118.949 140.469,119.118 139.962,119.325 139.962 C 119.531 139.962,119.700 139.654,119.700 139.278 C 119.700 138.901,119.995 138.314,120.356 137.973 C 122.426 136.020,122.954 135.587,123.547 135.360 C 123.908 135.221,124.203 134.934,124.203 134.721 C 124.203 134.508,124.625 134.334,125.141 134.334 C 125.657 134.334,126.079 134.165,126.079 133.959 C 126.079 133.710,152.603 133.583,204.900 133.583 C 257.352 133.583,283.644 133.709,283.490 133.959 C 283.358 134.172,283.676 134.334,284.225 134.334 C 287.038 134.334,291.182 139.115,291.182 142.359 C 291.182 143.105,291.351 143.715,291.557 143.715 C 291.764 143.715,291.932 144.137,291.932 144.653 C 291.932 145.169,291.800 145.591,291.637 145.591 C 291.475 145.591,291.300 146.140,291.250 146.811 C 291.147 148.179,290.398 150.094,289.965 150.094 C 289.809 150.094,289.681 150.370,289.681 150.707 C 289.681 151.418,288.077 152.901,286.585 153.568 C 286.018 153.822,285.553 154.157,285.553 154.313 C 285.553 154.469,285.033 154.597,284.396 154.597 C 283.639 154.597,283.293 154.759,283.394 155.066 C 283.659 155.874,285.467 155.832,286.365 154.996 C 286.822 154.570,287.352 154.221,287.544 154.221 C 288.052 154.221,290.432 151.533,290.432 150.959 C 290.432 150.689,290.600 150.469,290.807 150.469 C 291.013 150.469,291.182 150.216,291.182 149.906 C 291.182 149.597,291.351 149.343,291.557 149.343 C 291.764 149.343,291.932 148.668,291.932 147.842 C 291.932 147.017,292.101 146.341,292.308 146.341 C 292.514 146.341,292.683 145.592,292.683 144.675 C 292.683 143.759,292.514 142.904,292.308 142.777 C 292.101 142.649,291.932 142.064,291.932 141.477 C 291.932 140.277,290.646 137.655,289.464 136.445 C 288.284 135.238,287.089 134.334,286.675 134.334 C 286.471 134.334,286.304 134.165,286.304 133.959 C 286.304 133.752,285.882 133.583,285.366 133.583 C 284.850 133.583,284.428 133.415,284.428 133.208 C 284.428 132.746,126.169 132.724,125.328 133.187 M117.448 144.443 C 117.448 145.463,117.617 146.402,117.824 146.529 C 118.030 146.657,118.199 147.260,118.199 147.870 C 118.199 149.806,120.840 153.364,123.171 154.566 C 123.738 154.859,124.203 155.239,124.203 155.410 C 124.203 155.774,125.379 155.823,126.234 155.495 C 126.993 155.204,126.627 154.597,125.693 154.597 C 124.342 154.597,120.469 151.910,120.442 150.955 C 120.437 150.791,120.103 150.235,119.700 149.719 C 119.296 149.203,118.962 148.326,118.958 147.771 C 118.953 147.215,118.780 146.657,118.574 146.529 C 118.368 146.402,118.199 145.463,118.199 144.443 C 118.199 143.423,118.030 142.589,117.824 142.589 C 117.617 142.589,117.448 143.423,117.448 144.443 M127.674 155.816 C 127.932 156.590,282.552 156.685,282.552 155.911 C 282.552 155.411,273.743 155.347,205.034 155.347 C 143.187 155.347,127.549 155.442,127.674 155.816 M138.244 197.606 C 138.054 197.655,135.113 197.770,131.707 197.863 C 126.125 198.014,125.358 198.117,123.915 198.901 C 122.065 199.906,119.700 201.972,119.700 202.583 C 119.700 202.814,119.531 203.002,119.325 203.002 C 119.118 203.002,118.949 203.340,118.949 203.752 C 118.949 204.165,118.780 204.503,118.574 204.503 C 118.368 204.503,118.199 205.060,118.199 205.741 C 118.199 206.422,118.044 207.140,117.855 207.336 C 117.241 207.973,117.214 211.632,117.824 211.632 C 118.030 211.632,118.199 210.714,118.199 209.591 C 118.199 208.468,118.368 207.445,118.574 207.317 C 118.780 207.190,118.949 206.671,118.949 206.164 C 118.949 204.060,123.124 199.625,125.104 199.625 C 125.400 199.625,125.701 199.445,125.774 199.226 C 125.974 198.625,283.536 198.583,284.137 199.184 C 284.379 199.426,284.882 199.625,285.253 199.625 C 285.625 199.625,285.929 199.794,285.929 200.000 C 285.929 200.206,286.155 200.375,286.432 200.375 C 287.159 200.375,290.432 203.568,290.432 204.278 C 290.432 204.608,290.578 204.878,290.758 204.878 C 290.937 204.878,291.193 205.596,291.325 206.473 C 291.902 210.306,292.034 210.900,292.349 211.095 C 292.533 211.208,292.683 210.447,292.683 209.403 C 292.683 208.359,292.514 207.505,292.308 207.505 C 292.101 207.505,291.932 207.032,291.932 206.454 C 291.932 205.314,291.167 203.385,290.713 203.380 C 290.558 203.378,290.432 203.104,290.432 202.771 C 290.432 201.122,285.944 198.370,282.537 197.930 C 279.864 197.584,142.073 197.559,141.515 197.904 C 141.280 198.049,141.088 197.984,141.088 197.759 C 141.088 197.409,139.378 197.317,138.244 197.606 M291.182 212.383 C 291.182 213.208,291.013 213.884,290.807 213.884 C 290.600 213.884,290.432 214.126,290.432 214.422 C 290.432 215.239,286.360 219.137,285.507 219.137 C 285.095 219.137,284.863 219.306,284.991 219.512 C 285.118 219.719,285.550 219.887,285.951 219.887 C 286.351 219.887,286.679 219.719,286.679 219.512 C 286.679 219.306,286.940 219.137,287.259 219.137 C 287.912 219.137,289.681 217.505,289.681 216.903 C 289.681 216.687,289.850 216.510,290.056 216.510 C 290.263 216.510,290.432 216.257,290.432 215.947 C 290.432 215.638,290.558 215.383,290.713 215.382 C 291.198 215.377,291.932 213.413,291.932 212.120 C 291.932 211.439,291.764 210.882,291.557 210.882 C 291.351 210.882,291.182 211.557,291.182 212.383 M118.199 212.871 C 118.199 213.859,118.999 215.753,119.418 215.757 C 119.573 215.759,119.700 216.031,119.700 216.363 C 119.700 216.754,119.905 216.887,120.282 216.742 C 120.613 216.615,120.766 216.678,120.637 216.887 C 120.227 217.550,123.147 219.887,124.385 219.887 C 124.698 219.887,124.953 220.056,124.953 220.263 C 124.953 220.469,125.619 220.638,126.432 220.638 C 127.245 220.638,128.015 220.807,128.143 221.013 C 128.296 221.261,154.280 221.388,204.878 221.388 C 255.476 221.388,281.460 221.261,281.614 221.013 C 281.741 220.807,282.595 220.638,283.512 220.638 C 284.428 220.638,285.178 220.461,285.178 220.244 C 285.178 219.745,281.831 219.813,279.479 220.359 C 278.093 220.681,277.592 220.662,277.118 220.269 C 276.662 219.890,276.411 219.875,276.082 220.204 C 275.575 220.710,253.452 220.839,253.142 220.337 C 252.948 220.023,245.181 220.052,221.295 220.455 C 213.504 220.586,207.129 220.555,207.129 220.385 C 207.128 220.040,200.244 220.054,177.017 220.444 C 167.071 220.611,161.351 220.575,161.351 220.346 C 161.351 220.034,152.011 220.023,139.587 220.321 C 138.039 220.358,135.929 220.346,134.897 220.295 C 133.865 220.243,132.300 220.317,131.419 220.460 C 130.502 220.608,129.619 220.559,129.355 220.346 C 129.101 220.141,128.051 219.959,127.021 219.942 C 125.991 219.925,125.091 219.737,125.020 219.524 C 124.949 219.311,124.567 219.137,124.171 219.137 C 123.776 219.137,123.452 218.968,123.452 218.762 C 123.452 218.555,123.187 218.386,122.863 218.386 C 122.225 218.386,121.201 217.521,121.201 216.983 C 121.201 216.801,120.905 216.316,120.544 215.905 C 119.542 214.766,118.949 213.599,118.949 212.763 C 118.949 212.348,118.780 212.008,118.574 212.008 C 118.368 212.008,118.199 212.396,118.199 212.871 M128.330 262.664 C 128.330 262.913,154.013 263.039,204.628 263.039 C 246.592 263.039,281.043 263.157,281.187 263.300 C 281.330 263.444,281.654 263.594,281.906 263.633 C 282.158 263.673,283.018 263.811,283.818 263.940 C 285.633 264.234,289.681 267.229,289.681 268.277 C 289.681 268.492,289.850 268.668,290.056 268.668 C 290.263 268.668,290.432 268.992,290.432 269.387 C 290.432 269.783,290.592 270.163,290.788 270.231 C 290.985 270.300,291.215 270.947,291.301 271.670 C 291.387 272.392,291.590 273.300,291.753 273.687 C 291.919 274.081,291.858 274.918,291.616 275.590 C 291.377 276.249,291.182 277.159,291.182 277.611 C 291.182 279.365,288.256 282.653,285.515 283.980 L 283.808 284.807 205.242 284.807 C 116.511 284.807,124.787 285.111,121.482 281.730 C 120.502 280.728,119.700 279.658,119.700 279.353 C 119.700 279.049,119.531 278.799,119.325 278.799 C 119.118 278.799,118.949 278.293,118.949 277.674 C 118.949 277.054,118.780 276.548,118.574 276.548 C 118.154 276.548,118.051 272.693,118.460 272.284 C 118.603 272.141,118.762 271.743,118.812 271.401 C 118.923 270.649,120.484 267.506,121.011 266.974 C 122.902 265.066,124.977 263.922,126.735 263.818 C 127.957 263.745,127.021 263.039,125.704 263.039 C 124.878 263.039,124.203 263.208,124.203 263.415 C 124.203 263.621,123.949 263.790,123.640 263.790 C 123.330 263.790,123.077 263.959,123.077 264.165 C 123.077 264.371,122.902 264.540,122.689 264.540 C 122.185 264.540,119.700 267.025,119.700 267.530 C 119.700 267.743,119.573 267.919,119.418 267.920 C 118.930 267.925,118.199 269.893,118.199 271.204 C 118.199 271.897,118.051 272.373,117.869 272.261 C 117.688 272.149,117.439 272.561,117.316 273.177 C 117.055 274.482,117.395 276.548,117.871 276.548 C 118.051 276.548,118.199 277.021,118.199 277.599 C 118.199 278.739,118.964 280.668,119.418 280.672 C 119.573 280.674,119.700 280.929,119.700 281.238 C 119.700 281.548,119.840 281.801,120.012 281.801 C 120.183 281.801,120.543 282.212,120.812 282.714 C 121.081 283.217,121.785 283.828,122.377 284.073 C 122.968 284.318,123.452 284.667,123.452 284.849 C 123.452 285.030,123.860 285.178,124.359 285.178 C 124.858 285.178,125.336 285.389,125.422 285.647 C 125.638 286.296,283.087 286.340,284.464 285.692 C 287.708 284.164,288.931 283.433,288.931 283.021 C 288.931 282.763,289.099 282.552,289.306 282.552 C 289.512 282.552,289.681 282.376,289.681 282.161 C 289.681 281.946,290.019 281.407,290.432 280.964 C 290.844 280.521,291.182 279.937,291.182 279.667 C 291.182 279.396,291.351 279.174,291.557 279.174 C 291.764 279.174,291.932 278.415,291.932 277.486 C 291.932 276.557,292.101 275.797,292.308 275.797 C 292.514 275.797,292.683 275.132,292.683 274.319 C 292.683 273.505,292.514 272.735,292.308 272.608 C 292.101 272.480,291.932 271.913,291.932 271.347 C 291.932 270.225,291.163 268.300,290.713 268.296 C 290.558 268.294,290.432 268.064,290.432 267.785 C 290.432 267.100,288.428 265.045,287.460 264.737 C 287.030 264.601,286.679 264.332,286.679 264.140 C 286.679 263.947,286.426 263.790,286.116 263.790 C 285.807 263.790,285.553 263.621,285.553 263.415 C 285.553 263.208,284.719 263.039,283.699 263.039 C 282.680 263.039,281.741 262.871,281.614 262.664 C 281.460 262.416,255.468 262.289,204.856 262.289 C 154.089 262.289,128.330 262.415,128.330 262.664 M335.084 301.470 C 335.084 302.622,334.916 303.565,334.709 303.565 C 334.503 303.565,334.334 304.240,334.334 305.066 C 334.334 305.891,334.165 306.567,333.959 306.567 C 333.752 306.567,333.583 307.073,333.583 307.692 C 333.583 308.311,333.415 308.818,333.208 308.818 C 333.002 308.818,332.833 309.325,332.833 309.944 C 332.833 310.563,332.664 311.069,332.458 311.069 C 332.251 311.069,332.083 311.407,332.083 311.820 C 332.083 312.233,331.914 312.570,331.707 312.570 C 331.501 312.570,331.332 312.908,331.332 313.321 C 331.332 313.734,331.163 314.071,330.957 314.071 C 330.750 314.071,330.582 314.409,330.582 314.822 C 330.582 315.235,330.413 315.572,330.206 315.572 C 330.000 315.572,329.831 315.826,329.831 316.135 C 329.831 316.445,329.674 316.698,329.481 316.698 C 329.289 316.698,329.024 317.034,328.894 317.446 C 328.763 317.857,327.992 319.034,327.180 320.061 C 326.368 321.089,325.704 322.013,325.704 322.115 C 325.704 322.315,323.608 324.691,321.740 326.610 C 321.107 327.259,319.756 328.461,318.738 329.280 C 317.719 330.099,316.829 330.896,316.760 331.051 C 316.692 331.205,316.396 331.332,316.104 331.332 C 315.811 331.332,315.572 331.501,315.572 331.707 C 315.572 331.914,315.319 332.083,315.009 332.083 C 314.700 332.083,314.447 332.251,314.447 332.458 C 314.447 332.664,314.193 332.833,313.884 332.833 C 313.574 332.833,313.320 332.960,313.318 333.114 C 313.316 333.269,312.936 333.587,312.474 333.821 C 307.612 336.279,306.191 337.088,306.191 337.398 C 306.191 337.598,305.846 337.652,305.423 337.518 C 304.987 337.379,304.392 337.490,304.050 337.774 C 303.717 338.049,303.023 338.274,302.507 338.274 C 301.992 338.274,301.498 338.485,301.410 338.743 C 301.302 339.061,301.685 339.212,302.595 339.212 C 303.335 339.212,303.940 339.043,303.940 338.837 C 303.940 338.630,304.447 338.462,305.066 338.462 C 305.685 338.462,306.191 338.293,306.191 338.086 C 306.191 337.880,306.599 337.711,307.098 337.711 C 307.597 337.711,308.061 337.584,308.130 337.430 C 308.199 337.275,309.353 336.575,310.694 335.875 C 312.036 335.175,313.268 334.373,313.433 334.093 C 313.598 333.813,314.025 333.583,314.382 333.583 C 314.739 333.583,315.275 333.246,315.572 332.833 C 315.870 332.420,316.287 332.082,316.499 332.081 C 316.712 332.080,317.392 331.616,318.011 331.049 C 318.630 330.482,319.596 329.782,320.156 329.493 C 320.717 329.204,321.087 328.824,320.978 328.649 C 320.870 328.474,320.978 328.330,321.219 328.330 C 321.665 328.330,325.328 324.622,325.328 324.169 C 325.328 324.032,326.004 323.203,326.829 322.326 C 327.655 321.450,328.330 320.500,328.330 320.216 C 328.330 319.932,328.499 319.700,328.705 319.700 C 328.912 319.700,329.081 319.478,329.081 319.208 C 329.081 318.937,329.418 318.353,329.831 317.910 C 330.244 317.467,330.582 316.844,330.582 316.526 C 330.582 316.208,330.750 315.947,330.957 315.947 C 331.163 315.947,331.332 315.732,331.332 315.468 C 331.332 315.204,331.839 314.012,332.458 312.819 C 333.077 311.626,333.583 310.406,333.583 310.109 C 333.583 309.812,333.752 309.568,333.959 309.568 C 334.165 309.568,334.334 309.072,334.334 308.465 C 334.334 307.858,334.503 307.257,334.709 307.129 C 334.916 307.002,335.084 306.246,335.084 305.450 C 335.084 304.654,335.262 303.943,335.480 303.871 C 336.065 303.676,336.132 299.727,335.553 299.533 C 335.215 299.419,335.084 299.960,335.084 301.470 M109.443 339.087 C 108.883 339.648,109.265 339.962,110.507 339.962 C 111.980 339.962,112.267 339.419,110.976 339.073 C 109.893 338.783,109.746 338.784,109.443 339.087 M298.780 339.085 C 297.917 339.434,298.299 339.962,299.415 339.962 C 300.663 339.962,301.237 339.407,300.342 339.064 C 299.680 338.810,299.456 338.813,298.780 339.085 M112.852 339.846 C 111.421 340.220,112.316 340.713,114.424 340.713 C 116.979 340.713,117.735 340.170,115.659 339.827 C 114.157 339.579,113.867 339.581,112.852 339.846 M294.084 339.849 C 292.463 340.106,293.280 340.714,295.238 340.707 C 296.976 340.702,299.027 339.987,297.373 339.963 C 296.961 339.957,296.285 339.892,295.872 339.818 C 295.460 339.745,294.655 339.759,294.084 339.849 M118.199 341.085 C 118.978 341.583,289.190 341.580,289.498 341.081 C 289.646 340.841,259.790 340.715,203.681 340.719 C 148.572 340.722,117.838 340.854,118.199 341.085 " stroke="none" fill="#e8b7c6" fill-rule="evenodd"></path><path id="path2" d="M152.251 79.081 C 170.877 79.134,201.356 79.134,219.981 79.081 C 238.607 79.027,223.368 78.983,186.116 78.983 C 148.865 78.983,133.626 79.027,152.251 79.081 M263.910 79.080 C 269.445 79.139,278.395 79.139,283.798 79.080 C 289.200 79.022,284.672 78.974,273.734 78.974 C 262.795 78.974,258.375 79.022,263.910 79.080 M113.508 79.550 L 112.008 79.818 113.508 79.866 C 114.334 79.892,115.263 79.750,115.572 79.550 C 116.243 79.116,115.929 79.116,113.508 79.550 M294.366 79.541 C 294.497 79.752,295.297 79.925,296.145 79.925 C 298.040 79.925,297.895 79.734,295.751 79.405 C 294.682 79.242,294.210 79.288,294.366 79.541 M109.944 80.300 L 109.006 80.601 110.015 80.638 C 110.571 80.659,111.129 80.507,111.257 80.300 C 111.521 79.874,111.276 79.874,109.944 80.300 M298.499 80.300 C 298.627 80.507,299.101 80.664,299.553 80.649 C 300.346 80.624,300.348 80.611,299.625 80.300 C 298.592 79.856,298.225 79.856,298.499 80.300 M107.317 81.051 C 106.817 81.374,106.817 81.414,107.317 81.414 C 107.627 81.414,108.133 81.251,108.443 81.051 C 108.943 80.727,108.943 80.687,108.443 80.687 C 108.133 80.687,107.627 80.851,107.317 81.051 M301.501 81.051 C 301.628 81.257,302.103 81.414,302.555 81.400 C 303.348 81.374,303.350 81.362,302.627 81.051 C 301.594 80.607,301.227 80.607,301.501 81.051 M100.000 84.014 C 97.704 85.265,92.764 88.555,93.182 88.555 C 93.349 88.555,94.194 88.091,95.061 87.523 C 97.563 85.884,97.999 85.625,100.281 84.425 C 101.468 83.802,102.439 83.209,102.439 83.109 C 102.439 82.779,101.900 82.979,100.000 84.014 M313.870 86.924 C 315.922 88.297,317.849 89.605,318.150 89.832 C 319.206 90.625,324.431 95.885,325.456 97.186 L 326.491 98.499 325.535 96.998 C 323.440 93.708,312.297 84.428,310.441 84.428 C 310.274 84.428,311.817 85.551,313.870 86.924 M89.845 91.276 L 88.743 92.495 89.962 91.393 C 91.099 90.366,91.354 90.056,91.065 90.056 C 91.000 90.056,90.451 90.605,89.845 91.276 M86.452 94.653 C 85.833 95.324,85.094 96.210,84.811 96.623 C 84.527 97.036,84.775 96.867,85.362 96.248 C 87.180 94.330,87.943 93.433,87.756 93.433 C 87.658 93.433,87.071 93.982,86.452 94.653 M83.013 98.901 C 82.549 99.609,82.298 100.187,82.454 100.185 C 82.757 100.183,84.153 97.911,83.966 97.725 C 83.906 97.664,83.477 98.194,83.013 98.901 M327.773 100.668 C 328.135 101.242,328.526 101.618,328.642 101.502 C 328.757 101.387,328.460 100.917,327.983 100.459 L 327.114 99.625 327.773 100.668 M81.273 101.501 C 80.935 102.017,80.804 102.439,80.982 102.439 C 81.160 102.439,81.498 102.017,81.733 101.501 C 81.968 100.985,82.099 100.563,82.024 100.563 C 81.949 100.563,81.611 100.985,81.273 101.501 M78.641 106.133 C 77.499 108.386,75.797 113.332,75.797 114.397 C 75.797 114.813,75.629 115.257,75.422 115.385 C 75.216 115.512,75.047 116.441,75.047 117.448 C 75.047 118.456,74.878 119.385,74.672 119.512 C 74.465 119.640,74.302 120.114,74.308 120.566 C 74.329 122.102,75.109 120.187,75.483 117.679 C 76.077 113.702,76.247 112.944,76.589 112.732 C 76.773 112.619,76.923 112.124,76.923 111.632 C 76.923 111.141,77.092 110.634,77.298 110.507 C 77.505 110.379,77.674 109.957,77.674 109.569 C 77.674 109.181,78.177 107.893,78.792 106.707 C 79.407 105.521,79.841 104.481,79.755 104.396 C 79.670 104.310,79.169 105.092,78.641 106.133 M332.501 109.453 C 332.477 109.905,332.627 110.379,332.833 110.507 C 333.039 110.634,333.208 111.225,333.208 111.820 C 333.208 112.415,333.377 113.006,333.583 113.133 C 333.790 113.261,333.959 113.763,333.959 114.250 C 333.959 115.444,334.326 116.323,334.824 116.323 C 335.099 116.323,335.085 116.174,334.784 115.872 C 334.537 115.625,334.334 114.865,334.334 114.184 C 334.334 113.503,334.165 112.946,333.959 112.946 C 333.752 112.946,333.583 112.473,333.583 111.895 C 333.583 111.317,333.431 110.684,333.245 110.488 C 333.058 110.292,332.825 109.794,332.725 109.381 C 332.558 108.687,332.542 108.692,332.501 109.453 M334.778 118.386 C 334.718 119.962,335.215 121.196,335.710 120.700 C 335.870 120.540,335.807 120.290,335.571 120.144 C 335.334 119.997,335.072 119.204,334.988 118.382 L 334.835 116.886 334.778 118.386 M74.481 210.131 C 74.481 257.289,74.524 276.581,74.578 253.002 C 74.631 229.423,74.631 190.840,74.578 167.261 C 74.524 143.682,74.481 162.974,74.481 210.131 M335.644 209.193 C 335.644 255.835,335.688 274.860,335.741 251.471 C 335.794 228.082,335.794 189.921,335.741 166.668 C 335.688 143.415,335.644 162.552,335.644 209.193 M127.702 131.999 C 127.459 132.153,162.297 132.278,205.118 132.275 C 247.940 132.273,282.585 132.161,282.107 132.027 C 280.888 131.683,128.241 131.656,127.702 131.999 M284.991 133.096 C 286.702 133.780,288.524 135.054,289.877 136.513 C 290.388 137.065,290.807 137.345,290.807 137.136 C 290.807 136.166,285.469 132.437,284.136 132.477 C 283.781 132.488,284.165 132.766,284.991 133.096 M120.425 135.746 L 119.137 137.147 120.448 136.022 C 121.170 135.403,121.831 134.855,121.918 134.803 C 122.005 134.751,121.994 134.627,121.894 134.527 C 121.794 134.427,121.133 134.976,120.425 135.746 M291.388 138.872 C 291.718 139.510,292.058 139.962,292.144 139.876 C 292.372 139.648,291.421 137.717,291.079 137.714 C 290.918 137.712,291.058 138.233,291.388 138.872 M116.805 144.653 C 116.808 145.685,116.881 146.062,116.967 145.492 C 117.053 144.922,117.051 144.077,116.962 143.616 C 116.873 143.154,116.802 143.621,116.805 144.653 M72.543 146.154 C 72.545 147.598,72.613 148.144,72.694 147.365 C 72.775 146.586,72.774 145.404,72.691 144.738 C 72.608 144.072,72.542 144.709,72.543 146.154 M117.219 147.306 C 117.345 147.635,117.451 148.101,117.454 148.342 C 117.457 148.594,117.615 148.541,117.824 148.218 C 118.330 147.434,118.290 147.207,117.594 146.940 C 117.152 146.770,117.051 146.868,117.219 147.306 M118.574 150.760 C 118.574 151.986,123.587 156.098,125.083 156.098 C 125.606 156.098,126.139 156.266,126.266 156.473 C 126.420 156.721,152.968 156.817,204.994 156.755 L 283.490 156.662 205.271 156.567 C 153.878 156.504,126.924 156.343,126.678 156.097 C 126.472 155.891,125.932 155.722,125.476 155.722 C 124.132 155.722,121.877 154.262,120.169 152.286 C 119.292 151.271,118.574 150.585,118.574 150.760 M289.470 152.767 C 288.698 153.588,288.604 153.797,289.156 153.462 C 289.838 153.050,291.034 151.595,290.693 151.595 C 290.626 151.595,290.076 152.122,289.470 152.767 M286.867 154.972 C 286.248 155.354,285.277 155.680,284.709 155.695 C 284.142 155.710,283.677 155.875,283.677 156.062 C 283.677 156.249,284.057 156.319,284.522 156.218 C 285.415 156.023,288.555 154.568,288.555 154.350 C 288.555 154.079,287.951 154.302,286.867 154.972 M126.642 197.373 C 126.365 197.821,127.100 197.821,128.143 197.373 C 128.813 197.085,128.785 197.048,127.883 197.024 C 127.328 197.010,126.769 197.167,126.642 197.373 M165.385 197.263 C 165.849 197.352,166.609 197.352,167.073 197.263 C 167.538 197.174,167.158 197.100,166.229 197.100 C 165.300 197.100,164.920 197.174,165.385 197.263 M282.176 197.373 C 282.486 197.573,282.992 197.737,283.302 197.737 C 283.802 197.737,283.802 197.697,283.302 197.373 C 282.992 197.173,282.486 197.010,282.176 197.010 C 281.676 197.010,281.676 197.050,282.176 197.373 M122.166 199.070 C 121.769 199.371,121.518 199.692,121.609 199.783 C 121.700 199.874,122.194 199.626,122.707 199.232 C 123.220 198.838,123.471 198.517,123.265 198.519 C 123.058 198.521,122.564 198.769,122.166 199.070 M225.047 198.764 C 225.511 198.853,226.271 198.853,226.735 198.764 C 227.200 198.674,226.820 198.601,225.891 198.601 C 224.962 198.601,224.583 198.674,225.047 198.764 M259.027 198.779 C 261.463 198.845,265.347 198.845,267.657 198.779 C 269.967 198.713,267.974 198.660,263.227 198.660 C 258.480 198.660,256.590 198.714,259.027 198.779 M119.014 202.288 C 118.302 203.427,118.730 203.580,119.470 202.451 C 119.812 201.928,119.960 201.501,119.799 201.501 C 119.637 201.501,119.284 201.855,119.014 202.288 M291.932 206.287 C 291.932 206.493,292.186 206.873,292.495 207.129 C 292.809 207.390,293.058 207.431,293.058 207.221 C 293.058 207.015,292.805 206.636,292.495 206.379 C 292.181 206.118,291.932 206.078,291.932 206.287 M117.073 212.109 C 117.073 212.422,117.326 212.775,117.636 212.894 C 117.946 213.012,118.199 212.967,118.199 212.792 C 118.199 212.618,117.946 212.264,117.636 212.008 C 117.178 211.627,117.073 211.646,117.073 212.109 M292.062 212.211 C 291.724 213.091,292.089 213.195,292.607 212.366 C 292.896 211.901,292.921 211.632,292.674 211.632 C 292.460 211.632,292.184 211.893,292.062 212.211 M290.919 215.845 C 290.085 216.921,290.002 217.390,290.789 216.579 C 291.253 216.101,291.555 215.633,291.461 215.538 C 291.366 215.444,291.122 215.582,290.919 215.845 M287.377 219.500 C 286.890 219.906,286.703 220.243,286.961 220.250 C 287.219 220.257,287.430 220.094,287.430 219.887 C 287.430 219.681,287.683 219.512,287.992 219.512 C 288.302 219.512,288.555 219.343,288.555 219.137 C 288.555 218.608,288.384 218.661,287.377 219.500 M284.615 220.646 C 283.996 220.815,282.983 221.121,282.364 221.326 L 281.238 221.699 282.248 221.731 C 282.803 221.749,283.362 221.595,283.490 221.388 C 283.617 221.182,284.218 221.013,284.825 221.013 C 285.432 221.013,285.929 220.844,285.929 220.638 C 285.929 220.432,285.886 220.280,285.835 220.301 C 285.783 220.322,285.235 220.477,284.615 220.646 M126.642 262.289 C 126.514 262.495,125.995 262.664,125.489 262.664 C 124.982 262.664,124.191 262.875,123.730 263.133 C 122.508 263.817,120.713 265.291,121.101 265.291 C 121.285 265.291,121.770 264.995,122.181 264.634 C 123.439 263.528,124.516 263.039,125.698 263.039 C 126.320 263.039,126.829 262.871,126.829 262.664 C 126.829 262.415,153.096 262.289,204.878 262.289 C 256.660 262.289,282.927 262.415,282.927 262.664 C 282.927 262.871,283.602 263.039,284.428 263.039 C 285.253 263.039,285.929 263.208,285.929 263.415 C 285.929 263.621,286.146 263.790,286.411 263.790 C 287.061 263.790,289.900 266.330,290.816 267.730 C 291.221 268.349,291.553 268.630,291.555 268.355 C 291.562 266.882,286.392 262.664,284.580 262.664 C 284.108 262.664,283.617 262.495,283.490 262.289 C 283.168 261.769,126.963 261.769,126.642 262.289 M291.944 270.941 C 291.951 271.239,292.204 271.810,292.507 272.211 C 292.896 272.724,293.055 272.779,293.046 272.398 C 293.040 272.101,292.786 271.530,292.483 271.129 C 292.095 270.616,291.936 270.560,291.944 270.941 M292.400 276.539 C 291.718 277.631,291.827 278.367,292.523 277.372 C 292.848 276.908,293.059 276.362,292.991 276.159 C 292.923 275.956,292.658 276.127,292.400 276.539 M290.919 280.760 C 290.236 281.642,290.010 282.176,290.319 282.176 C 290.692 282.176,291.675 280.668,291.449 280.442 C 291.361 280.354,291.122 280.497,290.919 280.760 M118.574 280.837 C 118.574 282.256,123.166 285.469,126.856 286.632 C 128.799 287.245,281.381 287.234,283.275 286.621 C 285.700 285.837,288.555 284.381,288.550 283.931 C 288.546 283.648,288.445 283.626,288.268 283.870 C 287.885 284.399,284.925 285.761,283.071 286.262 C 280.849 286.862,129.824 286.854,127.304 286.253 C 124.347 285.549,122.236 284.386,120.356 282.427 C 119.376 281.405,118.574 280.690,118.574 280.837 M74.495 298.311 C 74.642 298.827,74.843 300.009,74.941 300.938 C 75.039 301.867,75.272 302.787,75.459 302.983 C 75.645 303.179,75.800 303.770,75.803 304.296 C 75.812 305.732,76.885 308.600,76.907 307.245 C 76.916 306.690,76.754 306.131,76.548 306.004 C 76.341 305.876,76.173 305.201,76.173 304.503 C 76.173 303.805,76.004 303.129,75.797 303.002 C 75.591 302.874,75.422 302.039,75.422 301.146 C 75.422 300.254,75.153 299.039,74.825 298.448 C 74.284 297.475,74.252 297.462,74.495 298.311 M335.112 298.465 C 334.862 298.767,334.727 299.573,334.811 300.257 L 334.964 301.501 335.024 300.125 C 335.057 299.368,335.295 298.674,335.553 298.582 C 335.811 298.490,335.920 298.303,335.795 298.166 C 335.669 298.030,335.362 298.164,335.112 298.465 M334.403 302.896 C 334.159 303.140,333.959 303.897,333.959 304.578 C 333.959 305.259,333.790 305.816,333.583 305.816 C 333.377 305.816,333.208 306.313,333.208 306.920 C 333.208 307.527,333.039 308.128,332.833 308.255 C 332.627 308.383,332.458 308.899,332.458 309.403 C 332.458 309.907,332.289 310.319,332.083 310.319 C 331.876 310.319,331.707 310.567,331.707 310.870 C 331.707 311.174,331.361 312.038,330.938 312.791 C 330.516 313.544,330.255 314.245,330.358 314.348 C 330.462 314.452,330.935 313.715,331.409 312.710 C 331.883 311.704,332.397 310.826,332.552 310.757 C 332.706 310.688,332.833 310.234,332.833 309.747 C 332.833 309.260,333.002 308.758,333.208 308.630 C 333.415 308.503,333.583 307.902,333.583 307.295 C 333.583 306.688,333.752 306.191,333.959 306.191 C 334.165 306.191,334.334 305.530,334.334 304.722 C 334.334 303.885,334.536 303.180,334.803 303.085 C 335.061 302.992,335.176 302.812,335.059 302.684 C 334.942 302.556,334.647 302.651,334.403 302.896 M81.273 317.261 C 81.611 317.777,81.949 318.199,82.024 318.199 C 82.099 318.199,81.968 317.777,81.733 317.261 C 81.498 316.745,81.160 316.323,80.982 316.323 C 80.804 316.323,80.935 316.745,81.273 317.261 M327.339 318.801 C 326.485 320.121,325.894 321.199,326.026 321.197 C 326.335 321.193,329.227 316.716,329.037 316.537 C 328.958 316.462,328.194 317.481,327.339 318.801 M85.213 322.702 C 86.301 324.386,86.304 324.391,86.302 323.984 C 86.301 323.795,85.865 323.133,85.333 322.514 L 84.366 321.388 85.213 322.702 M323.921 323.428 C 322.225 325.398,321.755 326.315,323.179 324.876 C 324.049 323.997,325.851 321.576,325.635 321.576 C 325.570 321.576,324.798 322.410,323.921 323.428 M319.281 328.061 C 317.513 329.560,316.891 330.037,315.121 331.255 C 314.160 331.917,313.219 332.458,313.030 332.458 C 312.841 332.458,312.365 332.825,311.972 333.273 C 311.139 334.223,311.396 334.094,314.877 331.820 C 316.248 330.923,318.106 329.525,319.004 328.713 C 320.733 327.149,320.946 326.649,319.281 328.061 M91.557 329.077 C 92.280 329.727,93.208 330.427,93.621 330.633 C 94.514 331.078,93.129 329.868,91.370 328.665 C 90.397 328.001,90.423 328.057,91.557 329.077 M95.398 331.792 C 96.512 332.739,98.687 334.097,98.687 333.845 C 98.687 333.760,97.716 333.067,96.529 332.305 C 95.342 331.543,94.833 331.312,95.398 331.792 M99.451 334.464 C 100.214 335.165,105.760 337.517,106.025 337.252 C 106.144 337.133,105.597 336.829,104.809 336.576 C 104.022 336.323,102.480 335.631,101.384 335.037 C 99.211 333.861,98.597 333.679,99.451 334.464 M308.571 335.076 C 307.507 335.655,305.988 336.350,305.194 336.620 C 304.364 336.902,304.008 337.165,304.354 337.240 C 304.685 337.311,305.947 336.855,307.158 336.227 C 308.369 335.599,309.504 335.084,309.679 335.084 C 309.854 335.084,310.251 334.831,310.560 334.522 C 311.371 333.711,310.779 333.876,308.571 335.076 M106.942 337.711 C 107.251 337.911,107.842 338.066,108.255 338.054 L 109.006 338.034 108.255 337.711 C 107.133 337.229,106.196 337.229,106.942 337.711 M301.876 337.711 C 301.206 337.999,301.234 338.036,302.135 338.060 C 302.691 338.074,303.250 337.917,303.377 337.711 C 303.654 337.263,302.919 337.263,301.876 337.711 M109.568 338.462 C 109.878 338.662,110.469 338.825,110.882 338.825 C 111.503 338.825,111.535 338.763,111.069 338.462 C 110.760 338.261,110.169 338.098,109.756 338.098 C 109.135 338.098,109.102 338.160,109.568 338.462 M299.062 338.462 C 298.622 338.746,298.719 338.827,299.509 338.831 C 300.064 338.834,300.623 338.668,300.750 338.462 C 301.047 337.982,299.803 337.982,299.062 338.462 M113.133 339.212 C 114.819 339.641,116.383 339.641,115.385 339.212 C 114.972 339.035,114.043 338.898,113.321 338.908 L 112.008 338.926 113.133 339.212 M294.559 339.212 C 293.242 339.634,294.618 339.648,296.623 339.234 L 298.124 338.923 296.811 338.917 C 296.088 338.914,295.075 339.047,294.559 339.212 M116.809 339.824 C 117.099 340.114,291.560 340.085,291.850 339.795 C 291.964 339.681,252.573 339.587,204.315 339.587 C 156.057 339.587,116.679 339.694,116.809 339.824 " stroke="none" fill="#eca3b9" fill-rule="evenodd"></path><path id="path3" d="M114.071 79.171 C 113.695 79.411,114.194 79.454,115.572 79.300 C 116.707 79.173,117.706 79.009,117.792 78.934 C 118.160 78.617,114.582 78.844,114.071 79.171 M293.465 78.937 C 293.551 79.013,294.296 79.188,295.122 79.326 C 296.197 79.506,296.463 79.469,296.060 79.194 C 295.554 78.849,293.088 78.605,293.465 78.937 M110.319 79.942 C 109.908 80.220,110.060 80.255,110.882 80.071 C 112.262 79.763,112.561 79.548,111.601 79.555 C 111.205 79.559,110.629 79.733,110.319 79.942 M106.754 80.877 C 105.265 81.558,105.985 81.557,107.880 80.874 C 108.705 80.576,109.043 80.339,108.630 80.347 C 108.218 80.355,107.373 80.593,106.754 80.877 M88.931 91.745 C 88.019 92.674,87.358 93.433,87.461 93.433 C 87.564 93.433,88.394 92.674,89.306 91.745 C 90.217 90.816,90.879 90.056,90.775 90.056 C 90.672 90.056,89.842 90.816,88.931 91.745 M320.075 90.924 C 320.075 90.989,320.624 91.538,321.295 92.144 L 322.514 93.246 321.412 92.026 C 320.385 90.890,320.075 90.634,320.075 90.924 M79.272 104.197 C 78.628 105.585,78.888 105.652,79.684 104.304 C 80.046 103.691,80.206 103.191,80.040 103.192 C 79.874 103.194,79.528 103.646,79.272 104.197 M129.311 132.438 C 129.421 132.548,157.368 132.662,191.415 132.691 C 225.462 132.719,253.227 132.652,253.116 132.541 C 253.005 132.429,225.058 132.316,191.012 132.288 C 156.967 132.261,129.201 132.328,129.311 132.438 M253.756 132.305 C 253.878 132.427,258.415 132.554,263.837 132.586 C 269.260 132.619,273.198 132.539,272.589 132.408 C 271.175 132.105,253.459 132.008,253.756 132.305 M274.859 132.483 C 275.969 132.741,284.218 132.895,283.490 132.645 C 283.283 132.574,281.004 132.450,278.424 132.369 C 275.844 132.288,274.240 132.339,274.859 132.483 M119.309 137.357 C 118.860 137.988,118.555 138.567,118.631 138.644 C 118.708 138.720,119.150 138.204,119.614 137.497 C 120.660 135.901,120.423 135.793,119.309 137.357 M291.182 138.910 C 291.182 139.029,291.434 139.610,291.743 140.201 C 292.051 140.792,292.299 141.023,292.293 140.713 C 292.288 140.403,292.036 139.822,291.733 139.422 C 291.430 139.021,291.182 138.791,291.182 138.910 M117.968 139.753 C 117.854 140.050,117.826 140.599,117.907 140.972 C 117.999 141.396,118.127 141.193,118.249 140.432 C 118.453 139.154,118.321 138.833,117.968 139.753 M291.946 141.702 C 291.938 141.936,292.185 142.612,292.493 143.203 C 292.801 143.794,293.049 144.024,293.043 143.715 C 293.029 143.042,291.965 141.088,291.946 141.702 M117.219 142.374 C 117.106 142.669,117.089 143.302,117.180 143.781 C 117.310 144.462,117.357 144.393,117.397 143.465 C 117.425 142.811,117.659 142.191,117.917 142.087 C 118.285 141.939,118.282 141.891,117.906 141.868 C 117.641 141.852,117.332 142.080,117.219 142.374 M292.726 145.466 C 292.703 145.913,292.489 146.344,292.251 146.423 C 292.014 146.502,291.901 146.811,292.001 147.110 C 292.258 147.881,293.159 146.131,292.938 145.290 C 292.813 144.817,292.759 144.862,292.726 145.466 M117.079 145.850 C 117.076 146.302,117.253 146.784,117.473 146.920 C 118.088 147.300,118.121 146.996,117.579 145.966 C 117.104 145.067,117.084 145.062,117.079 145.850 M117.879 148.405 C 117.862 148.818,118.095 149.483,118.398 149.884 C 118.701 150.285,118.949 150.445,118.949 150.241 C 118.949 150.036,118.797 149.708,118.611 149.512 C 118.424 149.316,118.190 148.818,118.091 148.405 L 117.911 147.655 117.879 148.405 M126.472 155.931 C 127.030 156.604,127.455 156.627,127.455 155.985 C 127.455 155.717,127.132 155.473,126.738 155.443 C 126.155 155.399,126.105 155.490,126.472 155.931 M128.163 197.326 C 127.464 197.610,127.468 197.632,128.256 197.838 C 128.709 197.956,129.163 197.920,129.264 197.756 C 129.365 197.593,138.567 197.482,149.714 197.510 C 160.861 197.538,169.981 197.456,169.981 197.329 C 169.981 196.983,129.014 196.981,128.163 197.326 M170.861 197.289 C 170.623 197.439,195.640 197.561,226.454 197.561 C 257.268 197.561,282.285 197.436,282.047 197.284 C 281.486 196.925,171.434 196.930,170.861 197.289 M125.422 198.007 C 125.783 198.102,126.374 198.102,126.735 198.007 C 127.097 197.913,126.801 197.836,126.079 197.836 C 125.356 197.836,125.061 197.913,125.422 198.007 M122.337 199.456 C 121.621 199.961,121.172 200.375,121.341 200.375 C 121.510 200.375,122.096 200.062,122.644 199.678 C 123.192 199.295,123.893 198.886,124.203 198.770 C 124.703 198.582,124.703 198.557,124.203 198.547 C 123.893 198.541,123.054 198.950,122.337 199.456 M290.446 202.439 C 290.447 202.645,290.793 203.236,291.216 203.752 C 291.725 204.375,291.853 204.438,291.595 203.940 C 290.962 202.716,290.443 202.037,290.446 202.439 M118.278 204.140 C 118.028 204.540,117.825 205.081,117.826 205.342 C 117.827 205.603,118.084 205.327,118.396 204.728 C 119.046 203.482,118.960 203.049,118.278 204.140 M117.494 206.858 C 117.222 207.366,117.081 208.099,117.180 208.487 C 117.311 208.996,117.374 208.914,117.405 208.193 C 117.429 207.642,117.643 207.127,117.880 207.048 C 118.117 206.969,118.239 206.686,118.150 206.419 C 118.048 206.113,117.805 206.276,117.494 206.858 M292.174 207.129 C 292.409 207.439,292.685 208.030,292.787 208.443 C 292.962 209.156,292.973 209.153,293.015 208.395 C 293.039 207.956,292.763 207.365,292.402 207.082 C 291.830 206.634,291.801 206.640,292.174 207.129 M292.734 210.381 C 292.706 210.829,292.472 211.270,292.214 211.362 C 291.956 211.454,291.834 211.628,291.943 211.748 C 292.383 212.233,293.114 211.306,292.954 210.464 C 292.799 209.640,292.781 209.633,292.734 210.381 M117.124 210.742 C 117.096 211.181,117.326 211.751,117.636 212.008 C 118.025 212.330,118.199 212.344,118.199 212.053 C 118.199 211.822,118.042 211.632,117.850 211.632 C 117.658 211.632,117.427 211.252,117.338 210.788 C 117.182 209.979,117.173 209.977,117.124 210.742 M291.507 214.237 C 291.227 214.868,290.871 215.385,290.715 215.385 C 290.559 215.385,290.432 215.563,290.432 215.782 C 290.432 216.001,290.602 216.074,290.809 215.946 C 291.307 215.639,292.413 213.488,292.189 213.264 C 292.093 213.169,291.786 213.606,291.507 214.237 M118.574 215.248 C 118.574 215.472,119.267 216.441,120.113 217.403 C 121.741 219.251,123.077 220.209,123.077 219.525 C 123.077 219.312,122.857 219.137,122.588 219.137 C 122.066 219.137,120.218 217.303,119.194 215.770 C 118.853 215.260,118.574 215.025,118.574 215.248 M286.679 219.512 C 286.679 219.719,286.341 219.887,285.929 219.887 C 285.516 219.887,285.178 220.040,285.178 220.228 C 285.178 220.703,286.564 220.291,287.088 219.659 C 287.403 219.280,287.406 219.137,287.100 219.137 C 286.869 219.137,286.679 219.306,286.679 219.512 M126.079 221.106 C 127.071 221.440,146.260 221.553,204.503 221.565 L 281.614 221.581 204.690 221.357 C 162.383 221.234,127.092 221.028,126.266 220.898 L 124.765 220.663 126.079 221.106 M281.801 221.095 C 281.801 221.499,282.622 221.453,283.302 221.011 C 283.733 220.731,283.623 220.664,282.833 220.723 C 282.265 220.766,281.801 220.934,281.801 221.095 M126.829 262.664 C 126.829 262.871,127.083 263.039,127.392 263.039 C 127.702 263.039,127.955 262.871,127.955 262.664 C 127.955 262.458,127.702 262.289,127.392 262.289 C 127.083 262.289,126.829 262.458,126.829 262.664 M281.801 262.664 C 282.529 263.134,282.927 263.134,282.927 262.664 C 282.927 262.458,282.547 262.292,282.083 262.295 C 281.400 262.299,281.346 262.370,281.801 262.664 M118.632 268.350 C 118.177 269.203,117.863 269.958,117.935 270.030 C 118.006 270.101,118.437 269.462,118.892 268.610 C 119.346 267.758,119.660 267.002,119.589 266.931 C 119.517 266.859,119.087 267.498,118.632 268.350 M117.714 271.107 C 117.568 271.520,117.336 272.108,117.200 272.414 C 117.024 272.810,117.139 272.783,117.603 272.319 C 117.961 271.961,118.192 271.373,118.117 271.013 C 117.997 270.432,117.950 270.443,117.714 271.107 M292.746 274.171 C 292.711 275.031,292.489 275.800,292.251 275.879 C 292.014 275.958,291.901 276.267,292.001 276.566 C 292.335 277.567,293.111 275.479,292.955 273.999 L 292.809 272.608 292.746 274.171 M117.073 276.071 C 117.073 276.251,117.229 276.558,117.420 276.754 C 117.610 276.950,117.838 277.617,117.926 278.236 L 118.086 279.362 118.143 278.116 C 118.174 277.430,117.946 276.616,117.636 276.307 C 117.326 275.997,117.073 275.891,117.073 276.071 M127.874 286.371 C 128.678 286.690,139.047 286.764,138.732 286.449 C 138.606 286.323,135.966 286.196,132.866 286.168 C 129.766 286.140,127.520 286.231,127.874 286.371 M163.227 286.322 C 162.092 286.451,166.468 286.584,172.952 286.618 C 179.436 286.652,184.635 286.574,184.507 286.445 C 184.193 286.131,165.840 286.026,163.227 286.322 M281.614 286.304 C 281.140 286.507,281.071 286.626,281.426 286.626 C 281.735 286.626,282.326 286.481,282.739 286.304 C 283.212 286.101,283.282 285.981,282.927 285.981 C 282.617 285.981,282.026 286.127,281.614 286.304 M212.688 286.585 C 216.054 286.647,221.458 286.647,224.695 286.585 C 227.933 286.522,225.178 286.471,218.574 286.471 C 211.970 286.471,209.321 286.523,212.688 286.585 M258.818 286.585 C 261.965 286.647,267.115 286.647,270.263 286.585 C 273.410 286.522,270.835 286.470,264.540 286.470 C 258.246 286.470,255.671 286.522,258.818 286.585 M88.180 326.642 C 88.665 327.158,89.193 327.580,89.354 327.580 C 89.515 327.580,89.225 327.158,88.709 326.642 C 88.193 326.126,87.665 325.704,87.535 325.704 C 87.405 325.704,87.695 326.126,88.180 326.642 M90.343 328.612 C 92.447 330.392,92.765 330.624,92.906 330.484 C 93.084 330.306,90.227 327.955,89.833 327.955 C 89.686 327.955,89.916 328.250,90.343 328.612 M93.433 330.944 C 93.433 331.157,93.687 331.332,93.996 331.332 C 94.306 331.332,94.559 331.501,94.559 331.707 C 94.559 331.914,94.738 332.083,94.956 332.083 C 95.507 332.083,95.042 331.416,94.163 330.946 C 93.661 330.677,93.433 330.677,93.433 330.944 M97.939 333.852 C 97.941 334.014,98.363 334.342,98.878 334.580 C 99.392 334.819,99.719 334.862,99.604 334.676 C 99.298 334.181,97.936 333.507,97.939 333.852 M305.691 336.836 C 305.332 337.194,305.383 337.711,305.776 337.711 C 305.960 337.711,306.208 337.458,306.327 337.148 C 306.547 336.576,306.147 336.380,305.691 336.836 M303.189 337.899 C 302.929 338.213,302.888 338.462,303.098 338.462 C 303.304 338.462,303.683 338.208,303.940 337.899 C 304.201 337.585,304.241 337.336,304.032 337.336 C 303.825 337.336,303.446 337.589,303.189 337.899 M300.563 338.649 C 300.302 338.963,300.262 339.212,300.471 339.212 C 300.677 339.212,301.056 338.959,301.313 338.649 C 301.574 338.335,301.615 338.086,301.405 338.086 C 301.199 338.086,300.820 338.340,300.563 338.649 M111.916 339.118 C 112.072 339.205,112.111 339.420,112.002 339.596 C 111.894 339.772,112.269 339.831,112.836 339.729 C 114.130 339.494,114.446 339.212,113.414 339.212 C 112.984 339.212,112.407 339.155,112.132 339.086 C 111.857 339.017,111.760 339.031,111.916 339.118 M295.716 339.346 C 295.802 339.419,296.463 339.588,297.186 339.720 C 298.110 339.890,298.332 339.852,297.936 339.592 C 297.428 339.259,295.344 339.027,295.716 339.346 M291.883 339.761 C 291.788 339.857,285.084 339.966,276.987 340.004 C 268.890 340.041,262.173 340.222,262.060 340.405 C 261.942 340.596,268.505 340.718,277.521 340.693 C 286.137 340.669,293.031 340.535,292.841 340.395 C 292.651 340.256,292.397 340.017,292.276 339.864 C 292.156 339.712,291.979 339.666,291.883 339.761 M117.073 340.389 C 117.073 340.573,148.554 340.699,189.306 340.677 C 229.034 340.657,261.538 340.496,261.538 340.322 C 261.538 340.147,229.034 340.017,189.306 340.033 C 148.605 340.050,117.073 340.205,117.073 340.389 " stroke="none" fill="#ecacbc" fill-rule="evenodd"></path><path id="path4" d="M130.659 132.736 C 132.043 132.808,134.407 132.808,135.912 132.737 C 137.418 132.665,136.285 132.606,133.396 132.606 C 130.507 132.605,129.275 132.664,130.659 132.736 M163.133 132.734 C 164.217 132.810,165.990 132.810,167.073 132.734 C 168.157 132.659,167.270 132.597,165.103 132.597 C 162.936 132.597,162.050 132.659,163.133 132.734 M180.025 132.730 C 180.700 132.813,181.713 132.812,182.277 132.726 C 182.841 132.640,182.289 132.572,181.051 132.574 C 179.812 132.576,179.351 132.646,180.025 132.730 M211.351 132.716 C 211.712 132.811,212.303 132.811,212.664 132.716 C 213.025 132.622,212.730 132.545,212.008 132.545 C 211.285 132.545,210.990 132.622,211.351 132.716 M218.299 132.730 C 218.974 132.813,219.987 132.812,220.551 132.726 C 221.115 132.640,220.563 132.572,219.325 132.574 C 218.086 132.576,217.625 132.646,218.299 132.730 M222.420 132.723 C 222.885 132.812,223.644 132.812,224.109 132.723 C 224.573 132.633,224.193 132.560,223.265 132.560 C 222.336 132.560,221.956 132.633,222.420 132.723 M253.944 132.723 C 254.411 132.813,255.087 132.810,255.445 132.716 C 255.804 132.622,255.422 132.548,254.597 132.552 C 253.771 132.557,253.478 132.633,253.944 132.723 M258.255 132.727 C 258.823 132.813,259.751 132.813,260.319 132.727 C 260.886 132.641,260.422 132.570,259.287 132.570 C 258.152 132.570,257.688 132.641,258.255 132.727 M265.009 132.735 C 266.196 132.810,268.138 132.810,269.325 132.735 C 270.511 132.661,269.540 132.600,267.167 132.600 C 264.794 132.600,263.823 132.661,265.009 132.735 M274.015 132.716 C 274.376 132.811,274.967 132.811,275.328 132.716 C 275.689 132.622,275.394 132.545,274.672 132.545 C 273.949 132.545,273.654 132.622,274.015 132.716 M143.628 197.645 C 144.302 197.729,145.315 197.727,145.879 197.641 C 146.443 197.556,145.891 197.488,144.653 197.490 C 143.415 197.492,142.953 197.562,143.628 197.645 M152.631 197.639 C 153.098 197.729,153.773 197.725,154.132 197.631 C 154.491 197.537,154.109 197.464,153.283 197.468 C 152.458 197.472,152.164 197.549,152.631 197.639 M157.505 197.638 C 157.969 197.728,158.729 197.728,159.193 197.638 C 159.658 197.549,159.278 197.476,158.349 197.476 C 157.420 197.476,157.040 197.549,157.505 197.638 M186.777 197.639 C 187.244 197.729,187.920 197.725,188.278 197.631 C 188.637 197.537,188.255 197.464,187.430 197.468 C 186.604 197.472,186.311 197.549,186.777 197.639 M192.031 197.639 C 192.497 197.729,193.173 197.725,193.532 197.631 C 193.890 197.537,193.508 197.464,192.683 197.468 C 191.857 197.472,191.564 197.549,192.031 197.639 M202.720 197.642 C 203.288 197.728,204.217 197.728,204.784 197.642 C 205.352 197.556,204.887 197.486,203.752 197.486 C 202.617 197.486,202.153 197.556,202.720 197.642 M211.918 197.639 C 212.385 197.729,213.060 197.725,213.419 197.631 C 213.778 197.537,213.396 197.464,212.570 197.468 C 211.745 197.472,211.451 197.549,211.918 197.639 M219.418 197.648 C 220.295 197.727,221.731 197.727,222.608 197.648 C 223.485 197.569,222.767 197.504,221.013 197.504 C 219.259 197.504,218.541 197.569,219.418 197.648 M232.364 197.647 C 233.138 197.728,234.404 197.728,235.178 197.647 C 235.952 197.566,235.319 197.500,233.771 197.500 C 232.223 197.500,231.590 197.566,232.364 197.647 M243.259 197.651 C 244.454 197.726,246.311 197.725,247.387 197.650 C 248.463 197.574,247.486 197.513,245.216 197.514 C 242.946 197.515,242.065 197.576,243.259 197.651 M259.756 197.632 C 260.117 197.726,260.708 197.726,261.069 197.632 C 261.431 197.538,261.135 197.460,260.413 197.460 C 259.690 197.460,259.395 197.538,259.756 197.632 M131.426 198.768 C 131.993 198.854,132.922 198.854,133.490 198.768 C 134.057 198.682,133.593 198.612,132.458 198.612 C 131.323 198.612,130.858 198.682,131.426 198.768 M131.999 286.204 C 132.881 286.283,134.232 286.282,135.001 286.201 C 135.769 286.121,135.047 286.056,133.396 286.057 C 131.745 286.059,131.116 286.125,131.999 286.204 M256.004 286.187 C 256.365 286.282,256.956 286.282,257.317 286.187 C 257.678 286.093,257.383 286.016,256.660 286.016 C 255.938 286.016,255.643 286.093,256.004 286.187 M278.424 286.304 L 275.610 286.544 278.236 286.585 C 279.681 286.608,281.201 286.481,281.614 286.304 C 282.030 286.125,282.113 286.000,281.801 286.023 C 281.492 286.045,279.972 286.172,278.424 286.304 M144.371 286.585 C 147.519 286.647,152.669 286.647,155.816 286.585 C 158.963 286.522,156.388 286.470,150.094 286.470 C 143.799 286.470,141.224 286.522,144.371 286.585 M190.173 286.585 C 193.333 286.648,198.399 286.647,201.430 286.584 C 204.462 286.521,201.876 286.470,195.685 286.470 C 189.493 286.470,187.013 286.522,190.173 286.585 M236.140 286.585 C 239.403 286.647,244.638 286.647,247.772 286.584 C 250.906 286.522,248.236 286.471,241.839 286.471 C 235.441 286.471,232.876 286.522,236.140 286.585 M296.811 339.587 C 296.038 339.835,296.005 339.893,296.623 339.919 C 297.036 339.937,297.627 339.787,297.936 339.587 C 298.594 339.162,298.137 339.162,296.811 339.587 M233.302 340.614 C 234.386 340.690,236.159 340.690,237.242 340.614 C 238.326 340.539,237.439 340.477,235.272 340.477 C 233.105 340.477,232.219 340.539,233.302 340.614 " stroke="none" fill="#ecacc4" fill-rule="evenodd"></path></g></svg>